<?xml version="1.0" encoding="UTF-8"?>
<svg version="1.1" xmlns="http://www.w3.org/2000/svg" width="441" height="318">
<path d="M0 0 C145.53 0 291.06 0 441 0 C441 104.94 441 209.88 441 318 C295.47 318 149.94 318 0 318 C0 213.06 0 108.12 0 0 Z " fill="#FCFCFC" transform="translate(0,0)"/>
<path d="M0 0 C13.53 0 27.06 0 41 0 C41 21.12 41 42.24 41 64 C43.31 64.66 45.62 65.32 48 66 C50.23730469 67.00219727 50.23730469 67.00219727 52.171875 68.06640625 C53.27921997 68.66509521 53.27921997 68.66509521 54.40893555 69.27587891 C55.18148682 69.70046387 55.95403809 70.12504883 56.75 70.5625 C66.34052188 75.73036085 76.11831045 80.41879118 86 85 C85.83734146 84.28326614 85.67468292 83.56653229 85.50709534 82.82807922 C85.01083041 80.06040136 84.87950716 77.55861508 84.88647461 74.75073242 C84.88658791 73.21971138 84.88658791 73.21971138 84.88670349 71.65776062 C84.89186478 70.5680043 84.89702606 69.47824799 84.90234375 68.35546875 C84.9037587 67.2305452 84.90517365 66.10562164 84.90663147 64.9466095 C84.91222069 61.36021241 84.92477128 57.77387816 84.9375 54.1875 C84.94251639 51.75325611 84.94707906 49.31901124 84.95117188 46.88476562 C84.96218661 40.92315294 84.97944389 34.96158712 85 29 C90.94 29 96.88 29 103 29 C103.01458252 30.36205566 103.02916504 31.72411133 103.04418945 33.12744141 C103.10227305 38.19313473 103.17950591 43.25838825 103.26245117 48.32373047 C103.2956531 50.51376188 103.3236997 52.70387789 103.34643555 54.89404297 C103.38006809 58.0469153 103.43238948 61.19901573 103.48828125 64.3515625 C103.49467117 65.32678864 103.5010611 66.30201477 103.50764465 67.30679321 C103.62153731 72.60322199 104.01721822 76.4318904 107 81 C110.65587344 84.22577069 114.09058685 84.46481531 118.78515625 84.28515625 C122.06532215 83.86284212 124.28656464 82.87356251 127 81 C130.17128931 76.73516265 131.09764283 72.828777 131.20532227 67.59863281 C131.22526749 66.7380426 131.24521271 65.87745239 131.26576233 64.99078369 C131.28247482 64.07085632 131.29918732 63.15092896 131.31640625 62.203125 C131.3475779 60.77996979 131.3475779 60.77996979 131.37937927 59.32806396 C131.44467934 56.30211518 131.50366888 53.2760808 131.5625 50.25 C131.6057038 48.19660579 131.64931869 46.14322018 131.69335938 44.08984375 C131.80034073 39.0599832 131.90166323 34.03003668 132 29 C137.94 29 143.88 29 150 29 C150.33 47.81 150.66 66.62 151 86 C156.28 83.36 161.56 80.72 167 78 C167.495 39.39 167.495 39.39 168 0 C173.94 0 179.88 0 186 0 C186 12.87 186 25.74 186 39 C189.2980559 37.90064803 189.66750789 37.36044975 191.625 34.6875 C195.84577112 29.65981676 200.43599589 27.46094453 206.9296875 26.62109375 C213.85783004 26.3478464 219.03417714 27.51033914 225 31 C225.62648438 31.33902344 226.25296875 31.67804688 226.8984375 32.02734375 C233.30266568 35.95657545 236.98530296 42.20150368 238.8984375 49.36328125 C239.3639648 51.57328451 239.789688 53.79227424 240.1640625 56.01953125 C241.13161547 59.4692645 242.67513818 61.31430501 245 64 C251.54870879 80.19943754 247.29680392 98.80154499 241.0390625 114.35546875 C227.99486584 144.9746724 200.54343639 167.03757746 170.22167969 179.25341797 C160.93317843 182.86783477 151.90507975 185.63183259 142 187 C141.35804688 187.08991211 140.71609375 187.17982422 140.0546875 187.27246094 C113.86869679 190.59366947 87.18327006 187.73891787 63 177 C61.97390625 176.55011719 60.9478125 176.10023438 59.890625 175.63671875 C28.45335704 160.87450959 6.61998567 135.9719777 -6.1640625 104.09765625 C-8.35170223 97.13605506 -8.2967362 89.9855974 -8.375 82.75 C-8.38917969 81.71931396 -8.40335937 80.68862793 -8.41796875 79.62670898 C-8.36357225 71.22312902 -7.08588692 64.2648836 -1 58 C3.01944446 54.46776093 6.88699195 54.70750935 11.98828125 54.796875 C15.67232829 55.0453451 19.33609675 55.54201209 23 56 C23 43.46 23 30.92 23 18 C15.41 18 7.82 18 0 18 C0 12.06 0 6.12 0 0 Z " fill="#E7D59C" transform="translate(104,113)"/>
<path d="M0 0 C2.76930611 2.17730236 5.37981797 4.44347081 7.97265625 6.828125 C8.48779785 7.30088867 9.00293945 7.77365234 9.53369141 8.26074219 C17.90052634 16.02941419 24.66816497 24.32998898 30.97265625 33.828125 C31.48441406 34.54355469 31.99617187 35.25898437 32.5234375 35.99609375 C36.03159229 41.08997794 37.8909681 46.74313755 39.859375 52.55859375 C40.88886681 55.72832186 40.88886681 55.72832186 42.0546875 58.31640625 C46.19630215 69.64856889 45.79981292 86.83508737 41.140625 97.8671875 C39.9383895 99.88565646 38.78485893 101.33460363 36.97265625 102.828125 C36.31265625 102.828125 35.65265625 102.828125 34.97265625 102.828125 C34.31265625 104.148125 33.65265625 105.468125 32.97265625 106.828125 C31.59702771 105.53847324 30.26499232 104.20123207 28.97265625 102.828125 C28.97265625 102.168125 28.97265625 101.508125 28.97265625 100.828125 C28.16828125 100.456875 28.16828125 100.456875 27.34765625 100.078125 C24.97265625 98.828125 24.97265625 98.828125 22.09765625 96.828125 C15.38406736 92.53142811 8.80977409 91.87189804 0.97265625 92.828125 C-5.79810866 95.01012807 -9.77444141 98.28646437 -14.02734375 103.828125 C-15.01734375 103.828125 -16.00734375 103.828125 -17.02734375 103.828125 C-17.02734375 90.958125 -17.02734375 78.088125 -17.02734375 64.828125 C-22.96734375 64.828125 -28.90734375 64.828125 -35.02734375 64.828125 C-35.02734375 90.568125 -35.02734375 116.308125 -35.02734375 142.828125 C-52.02734375 151.828125 -52.02734375 151.828125 -53.02734375 151.828125 C-53.02734375 132.688125 -53.02734375 113.548125 -53.02734375 93.828125 C-58.96734375 93.828125 -64.90734375 93.828125 -71.02734375 93.828125 C-71.00377808 95.71917969 -71.00377808 95.71917969 -70.97973633 97.6484375 C-70.9251925 102.35231061 -70.89090499 107.05615607 -70.86254883 111.76025391 C-70.84751776 113.7912263 -70.82708728 115.82216654 -70.80102539 117.85302734 C-70.76439143 120.78230759 -70.74756024 123.71115644 -70.734375 126.640625 C-70.71889114 127.53990723 -70.70340729 128.43918945 -70.68745422 129.36572266 C-70.68591501 135.20953637 -71.54974614 139.51028247 -74.02734375 144.828125 C-77.83115202 148.53683807 -81.07078154 149.96771968 -86.33984375 150.140625 C-90.96648868 150.072918 -93.52927675 148.99304276 -97.02734375 145.828125 C-100.62811518 140.3957195 -100.42003785 135.46073049 -100.3203125 129.1796875 C-100.31606766 128.16715912 -100.31182281 127.15463074 -100.30744934 126.11141968 C-100.29071677 122.89171252 -100.25307401 119.67264156 -100.21484375 116.453125 C-100.19978993 114.26433198 -100.18610275 112.07552911 -100.17382812 109.88671875 C-100.1408309 104.53361071 -100.08908549 99.18097556 -100.02734375 93.828125 C-105.96734375 93.828125 -111.90734375 93.828125 -118.02734375 93.828125 C-117.69734375 112.308125 -117.36734375 130.788125 -117.02734375 149.828125 C-122.77700859 147.91157005 -127.48786594 146.28279976 -132.75 143.61328125 C-133.33978134 143.31626816 -133.92956268 143.01925507 -134.53721619 142.71324158 C-136.39104122 141.77806682 -138.2404873 140.83460023 -140.08984375 139.890625 C-141.32979155 139.26310529 -142.57002446 138.63614863 -143.81054688 138.00976562 C-146.10605172 136.84989498 -148.39947475 135.68624154 -150.69165039 134.51977539 C-154.46256892 132.60740662 -158.24560014 130.7189968 -162.02734375 128.828125 C-162.02734375 107.708125 -162.02734375 86.588125 -162.02734375 64.828125 C-175.55734375 64.828125 -189.08734375 64.828125 -203.02734375 64.828125 C-203.02734375 70.768125 -203.02734375 76.708125 -203.02734375 82.828125 C-195.43734375 82.828125 -187.84734375 82.828125 -180.02734375 82.828125 C-180.02734375 90.088125 -180.02734375 97.348125 -180.02734375 104.828125 C-195.64378211 107.43086473 -195.64378211 107.43086473 -202.58984375 104.140625 C-208.93670989 98.11923918 -211.04652813 92.94596414 -211.328125 84.31640625 C-211.60218586 56.23762526 -201.94904386 33.96518276 -182.625 13.38671875 C-178.35497289 9.18090257 -173.78579037 5.46416966 -169.02734375 1.828125 C-168.1765625 1.16167969 -167.32578125 0.49523437 -166.44921875 -0.19140625 C-117.19434647 -37.5749695 -49.5950147 -35.58042345 0 0 Z " fill="#E8D69D" transform="translate(307.02734375,48.171875)"/>
<path d="M0 0 C0.69693466 0.33949173 1.39386932 0.67898346 2.11192322 1.02876282 C4.33641485 2.11404082 6.5568645 3.20732137 8.77734375 4.30078125 C10.24258554 5.01679402 11.70807823 5.73229359 13.17382812 6.44726562 C21.37803547 10.45587706 29.54726736 14.52949305 37.71484375 18.61328125 C37.71484375 38.41328125 37.71484375 58.21328125 37.71484375 78.61328125 C20.71484375 87.61328125 20.71484375 87.61328125 19.71484375 87.61328125 C19.71484375 68.47328125 19.71484375 49.33328125 19.71484375 29.61328125 C13.77484375 29.61328125 7.83484375 29.61328125 1.71484375 29.61328125 C1.7305542 30.87398437 1.74626465 32.1346875 1.76245117 33.43359375 C1.816995 38.13746686 1.85128251 42.84131232 1.87963867 47.54541016 C1.89466974 49.57638255 1.91510022 51.60732279 1.94116211 53.63818359 C1.97779607 56.56746384 1.99462726 59.49631269 2.0078125 62.42578125 C2.02329636 63.32506348 2.03878021 64.2243457 2.05473328 65.15087891 C2.05627249 70.99469262 1.19244136 75.29543872 -1.28515625 80.61328125 C-5.08896452 84.32199432 -8.32859404 85.75287593 -13.59765625 85.92578125 C-18.22430118 85.85807425 -20.78708925 84.77819901 -24.28515625 81.61328125 C-27.88592768 76.18087575 -27.67785035 71.24588674 -27.578125 64.96484375 C-27.57388016 63.95231537 -27.56963531 62.93978699 -27.56526184 61.89657593 C-27.54852927 58.67686877 -27.51088651 55.45779781 -27.47265625 52.23828125 C-27.45760243 50.04948823 -27.44391525 47.86068536 -27.43164062 45.671875 C-27.3986434 40.31876696 -27.34689799 34.96613181 -27.28515625 29.61328125 C-33.22515625 29.61328125 -39.16515625 29.61328125 -45.28515625 29.61328125 C-44.95515625 48.09328125 -44.62515625 66.57328125 -44.28515625 85.61328125 C-50.03482109 83.6967263 -54.74567844 82.06795601 -60.0078125 79.3984375 C-60.89248451 78.95291786 -60.89248451 78.95291786 -61.79502869 78.49839783 C-63.64885372 77.56322307 -65.4982998 76.61975648 -67.34765625 75.67578125 C-68.58760405 75.04826154 -69.82783696 74.42130488 -71.06835938 73.79492188 C-73.36386422 72.63505123 -75.65728725 71.47139779 -77.94946289 70.30493164 C-81.72038142 68.39256287 -85.50341264 66.50415305 -89.28515625 64.61328125 C-89.28515625 54.38328125 -89.28515625 44.15328125 -89.28515625 33.61328125 C-80.5750543 28.92322635 -71.87795984 24.35062525 -62.91015625 20.17578125 C-56.39328756 17.14074625 -50.00100734 13.93813746 -43.66015625 10.55078125 C-35.00700725 5.93141083 -26.22915354 1.64104162 -17.28515625 -2.38671875 C-16.40601563 -2.80953125 -15.526875 -3.23234375 -14.62109375 -3.66796875 C-9.35677755 -5.28775835 -4.66411641 -2.30942448 0 0 Z " fill="#FEFEFD" transform="translate(234.28515625,112.38671875)"/>
<path d="M0 0 C5.94 0 11.88 0 18 0 C18 12.87 18 25.74 18 39 C21.2980559 37.90064803 21.66750789 37.36044975 23.625 34.6875 C27.84577112 29.65981676 32.43599589 27.46094453 38.9296875 26.62109375 C45.85783004 26.3478464 51.03417714 27.51033914 57 31 C57.62648438 31.33902344 58.25296875 31.67804688 58.8984375 32.02734375 C66.27261369 36.55167456 69.75209372 44.11549929 71.875 52.25 C73.89111444 62.42657767 74.29264853 72.41122665 70 82 C69.73316406 82.68578125 69.46632813 83.3715625 69.19140625 84.078125 C65.87351003 91.80513664 59.37356863 97.23616663 51.62109375 100.33984375 C44.10551978 102.23273794 35.48452844 102.40473534 28.67578125 98.3515625 C26.18817353 96.34524019 24.23309433 94.04256462 22.32421875 91.48828125 C20.96463872 89.71124567 20.96463872 89.71124567 18 89 C18 92.3 18 95.6 18 99 C12.06 99 6.12 99 0 99 C0 66.33 0 33.66 0 0 Z " fill="#040403" transform="translate(272,113)"/>
<path d="M0 0 C0.77214844 0.42796875 1.54429687 0.8559375 2.33984375 1.296875 C9.18949816 5.69150476 13.00403176 13.11897586 17 20 C17.40734375 20.69738281 17.8146875 21.39476563 18.234375 22.11328125 C21.08780949 29.1449591 18.7225761 36.95351587 16.16796875 43.6875 C15.01077362 45.97866896 13.99951593 47.40458571 12 49 C11.34 49 10.68 49 10 49 C9.34 50.32 8.68 51.64 8 53 C6.62437146 51.71034824 5.29233607 50.37310707 4 49 C4 48.34 4 47.68 4 47 C3.46375 46.7525 2.9275 46.505 2.375 46.25 C0 45 0 45 -2.875 43 C-9.58858889 38.70330311 -16.16288216 38.04377304 -24 39 C-30.77076491 41.18200307 -34.74709766 44.45833937 -39 50 C-39.99 50 -40.98 50 -42 50 C-42 37.13 -42 24.26 -42 11 C-47.94 11 -53.88 11 -60 11 C-60 16.94 -60 22.88 -60 29 C-64.61431311 27.46189563 -68.49650582 25.86878781 -72.796875 23.69921875 C-73.43054993 23.38096634 -74.06422485 23.06271393 -74.71710205 22.7348175 C-76.72999492 21.72281905 -78.74003484 20.70529877 -80.75 19.6875 C-82.08314508 19.01590223 -83.41647699 18.34467518 -84.75 17.67382812 C-87.32064915 16.38003962 -89.89027898 15.08426425 -92.45898438 13.78662109 C-96.96662162 11.51229061 -101.48173185 9.25312219 -106 7 C-106 6.34 -106 5.68 -106 5 C-72.71585692 -8.8953734 -33.12895505 -19.07299039 0 0 Z " fill="#DECE99" transform="translate(332,102)"/>
<path d="M0 0 C6.6 0 13.2 0 20 0 C29.89626276 22.55017977 29.89626276 22.55017977 33.625 31.75 C34.09164062 32.89984375 34.55828125 34.0496875 35.0390625 35.234375 C36 38 36 38 36 41 C37.32 41 38.64 41 40 41 C40.35707031 39.84628906 40.71414063 38.69257813 41.08203125 37.50390625 C43.53201544 30.15395367 46.66504687 23.06528247 49.6875 15.9375 C50.30043814 14.48515596 50.91307086 13.03268298 51.52539062 11.58007812 C53.01285092 8.05163714 54.50653988 4.52592939 56 1 C62.6 1 69.2 1 76 1 C74.0135871 6.95923869 71.98468542 12.61344966 69.4609375 18.32421875 C68.79151347 19.86256355 68.12224722 21.40097702 67.453125 22.93945312 C66.41097972 25.32343432 65.36667534 27.70643071 64.31933594 30.08813477 C63.29818649 32.41432465 62.28537531 34.74400993 61.2734375 37.07421875 C60.95990326 37.78059982 60.64636902 38.4869809 60.32333374 39.21476746 C57.73076685 45.20401842 56.20092302 49.41790968 58.63061523 55.7644043 C59.42493657 57.62415634 60.23525193 59.47713123 61.05859375 61.32421875 C61.48173355 62.30743607 61.90487335 63.29065338 62.34083557 64.30366516 C63.69231056 67.43793496 65.06378217 70.56292291 66.4375 73.6875 C67.80426364 76.82411811 69.16672479 79.9624978 70.52345276 83.10346985 C71.36819995 85.05619861 72.2193686 87.00616428 73.07749939 88.95304871 C73.46112137 89.8343898 73.84474335 90.7157309 74.23999023 91.6237793 C74.5805394 92.3984404 74.92108856 93.1731015 75.2719574 93.97123718 C76 96 76 96 76 99 C69.4 99 62.8 99 56 99 C54.89140625 96.19628906 53.7828125 93.39257812 52.640625 90.50390625 C51.55871268 87.79854379 50.47152063 85.09536111 49.38378906 82.39233398 C48.62953509 80.50978492 47.88080696 78.62501223 47.13769531 76.73803711 C46.06973523 74.02897838 44.98227991 71.32848876 43.890625 68.62890625 C43.56128967 67.78099014 43.23195435 66.93307404 42.89263916 66.0594635 C42.57260925 65.27872971 42.25257935 64.49799591 41.92285156 63.69360352 C41.64749573 63.00299332 41.37213989 62.31238312 41.08843994 61.60084534 C40.09486738 59.79605408 40.09486738 59.79605408 37.87982178 59.26914978 C36.94931 59.13592064 36.94931 59.13592064 36 59 C35.63132812 60.17691406 35.26265625 61.35382813 34.8828125 62.56640625 C32.57213185 69.49709056 29.68997624 76.20101079 26.875 82.9375 C26.31873928 84.27658011 25.76274771 85.61577206 25.20703125 86.95507812 C21.18472554 96.63054893 21.18472554 96.63054893 20 99 C13.4 99 6.8 99 0 99 C3.37113377 88.88659868 3.37113377 88.88659868 4.82519531 85.61694336 C5.31019501 84.51551247 5.31019501 84.51551247 5.80499268 83.39183044 C6.14262634 82.63217484 6.48026001 81.87251923 6.828125 81.08984375 C7.5529901 79.42422245 8.27692104 77.75819435 9 76.09179688 C10.12585569 73.50523201 11.25705919 70.92164221 12.40429688 68.34448242 C13.52121238 65.82927461 14.61389613 63.30464165 15.703125 60.77734375 C16.04885559 60.01566391 16.39458618 59.25398407 16.75079346 58.46922302 C19.68664827 51.56115302 19.0197741 46.33642596 16.34179688 39.48339844 C15.64437663 37.85429243 14.93619306 36.22976287 14.21875 34.609375 C13.65843079 33.30882172 13.65843079 33.30882172 13.08679199 31.98199463 C11.9008231 29.23370526 10.70111988 26.49169715 9.5 23.75 C8.3014453 20.99298738 7.10582547 18.23474471 5.91320801 15.47515869 C5.17267629 13.76390194 4.42828037 12.05431091 3.67956543 10.34661865 C3.34251587 9.57191223 3.00546631 8.79720581 2.65820312 7.99902344 C2.36143677 7.32143982 2.06467041 6.6438562 1.75891113 5.94573975 C1 4 1 4 0 0 Z " fill="#030303" transform="translate(355,113)"/>
<path d="M0 0 C1.18408447 0.01522705 1.18408447 0.01522705 2.39208984 0.03076172 C12.23477075 0.29196432 19.86582823 2.47488404 27.125 9.375 C35.63489886 18.52169401 36.50964855 27.19446264 36.125 39.375 C30.185 39.375 24.245 39.375 18.125 39.375 C17.8775 37.51875 17.63 35.6625 17.375 33.75 C16.30518749 27.44256375 14.87506135 23.43754601 9.625 19.5 C3.87198545 17.65081675 -2.27490614 17.10437864 -8.06640625 19.1484375 C-13.3967444 22.39499335 -15.39515724 27.52697851 -16.875 33.375 C-17.4986872 38.54961392 -17.45157733 43.75677252 -17.39648438 48.9609375 C-17.37503724 51.37081512 -17.39636422 53.7777128 -17.421875 56.1875 C-17.43685076 64.44809706 -17.34084991 72.09793841 -12.875 79.375 C-8.7438771 83.5061229 -5.29852118 84.52979633 0.4375 84.625 C5.07716135 84.57596791 8.23227705 84.09990607 12.125 81.375 C17.0028394 76.1487435 17.51274584 70.2118381 18.125 63.375 C24.065 63.375 30.005 63.375 36.125 63.375 C36.64756329 74.47947001 35.12466894 83.75278158 27.95703125 92.58984375 C20.74394319 99.61837518 12.2564816 102.41898148 2.375 102.6875 C-8.48800631 102.50299034 -17.62792563 99.99480666 -25.78125 92.66015625 C-30.70821259 87.5557395 -32.85572423 82.09506291 -34.875 75.375 C-35.205 74.385 -35.535 73.395 -35.875 72.375 C-35.97491437 71.03185521 -36.02316807 69.68443998 -36.03613281 68.33764648 C-36.04574036 67.52927841 -36.0553479 66.72091034 -36.06524658 65.88804626 C-36.06949646 65.01620193 -36.07374634 64.1443576 -36.078125 63.24609375 C-36.08667511 61.88968529 -36.08667511 61.88968529 -36.09539795 60.50587463 C-36.10484786 58.58848234 -36.11138189 56.67107381 -36.11523438 54.75366211 C-36.12488264 51.84784699 -36.15588197 48.94275677 -36.1875 46.03710938 C-36.19403625 44.16927501 -36.19928427 42.3014356 -36.203125 40.43359375 C-36.2154718 39.57591904 -36.2278186 38.71824432 -36.24053955 37.83457947 C-36.20153683 27.04214591 -32.6882578 17.75649315 -25.875 9.375 C-18.37759634 2.75251777 -9.89223992 -0.18440644 0 0 Z " fill="#030303" transform="translate(48.875,111.625)"/>
<path d="M0 0 C13.53 0 27.06 0 41 0 C41 27.06 41 54.12 41 82 C48.59 82 56.18 82 64 82 C64 87.61 64 93.22 64 99 C42.55 99 21.1 99 -1 99 C-1 93.39 -1 87.78 -1 82 C6.92 82 14.84 82 23 82 C23 60.88 23 39.76 23 18 C15.41 18 7.82 18 0 18 C0 12.06 0 6.12 0 0 Z " fill="#040403" transform="translate(104,113)"/>
<path d="M0 0 C5.94 0 11.88 0 18 0 C18.01458252 1.36205566 18.02916504 2.72411133 18.04418945 4.12744141 C18.10227305 9.19313473 18.17950591 14.25838825 18.26245117 19.32373047 C18.2956531 21.51376188 18.3236997 23.70387789 18.34643555 25.89404297 C18.38006809 29.0469153 18.43238948 32.19901573 18.48828125 35.3515625 C18.49467117 36.32678864 18.5010611 37.30201477 18.50764465 38.30679321 C18.62153731 43.60322199 19.01721822 47.4318904 22 52 C25.65587344 55.22577069 29.09058685 55.46481531 33.78515625 55.28515625 C37.06532215 54.86284212 39.28656464 53.87356251 42 52 C45.17128931 47.73516265 46.09764283 43.828777 46.20532227 38.59863281 C46.22526749 37.7380426 46.24521271 36.87745239 46.26576233 35.99078369 C46.29083107 34.61089264 46.29083107 34.61089264 46.31640625 33.203125 C46.33718735 32.25435486 46.35796844 31.30558472 46.37937927 30.32806396 C46.44467934 27.30211518 46.50366888 24.2760808 46.5625 21.25 C46.6057038 19.19660579 46.64931869 17.14322018 46.69335938 15.08984375 C46.80034073 10.0599832 46.90166323 5.03003668 47 0 C52.94 0 58.88 0 65 0 C65 23.1 65 46.2 65 70 C59.06 70 53.12 70 47 70 C47 66.7 47 63.4 47 60 C46.01 60 45.02 60 44 60 C43.85111328 60.89332031 43.85111328 60.89332031 43.69921875 61.8046875 C42.45915786 65.69806303 39.24388341 67.70702628 36 70 C29.97709992 73.01145004 22.59950794 73.18793959 16.2421875 71.08984375 C8.07946542 67.30087873 4.06590439 62.12616175 0.84240723 53.86114502 C-0.6228244 48.88464431 -0.49056032 44.01736643 -0.390625 38.8671875 C-0.38496521 37.74933868 -0.37930542 36.63148987 -0.37347412 35.47976685 C-0.3512622 31.94439039 -0.30109311 28.41006496 -0.25 24.875 C-0.22991543 22.46355641 -0.21166811 20.05209677 -0.1953125 17.640625 C-0.15144701 11.76001787 -0.08252448 5.88018651 0 0 Z " fill="#040404" transform="translate(189,142)"/>
<path d="M0 0 C3.66042051 3.45995123 5.13913093 6.0771662 6 11 C6.20496094 12.03769531 6.40992188 13.07539063 6.62109375 14.14453125 C7.60790145 21.08278386 7.40279844 25.43039002 3.5 31.375 C2.03634637 33.27850809 0.53798448 35.15602908 -1 37 C-1.84498047 38.12728516 -1.84498047 38.12728516 -2.70703125 39.27734375 C-11.69251416 50.66770044 -26.00641861 55.97142507 -40 58 C-56.04165195 58.99898623 -71.48366943 58.2018173 -87 54 C-87.85207031 53.76974121 -88.70414062 53.53948242 -89.58203125 53.30224609 C-118.44470608 45.33294088 -118.44470608 45.33294088 -122 40 C-121.36191406 39.45730469 -120.72382813 38.91460937 -120.06640625 38.35546875 C-118.82697266 37.28232422 -118.82697266 37.28232422 -117.5625 36.1875 C-116.73878906 35.47980469 -115.91507813 34.77210938 -115.06640625 34.04296875 C-112.77835241 32.08890314 -112.77835241 32.08890314 -112 29 C-111.01 29 -110.02 29 -109 29 C-109 32.3 -109 35.6 -109 39 C-103.06 39 -97.12 39 -91 39 C-91 35.04 -91 31.08 -91 27 C-88.1888021 25.49751459 -85.37613594 23.9979069 -82.5625 22.5 C-81.76005859 22.07074219 -80.95761719 21.64148438 -80.13085938 21.19921875 C-79.36708984 20.79316406 -78.60332031 20.38710937 -77.81640625 19.96875 C-77.10943604 19.59169922 -76.40246582 19.21464844 -75.67407227 18.82617188 C-74 18 -74 18 -73 18 C-73 24.93 -73 31.86 -73 39 C-67.06 39 -61.12 39 -55 39 C-55 35.7 -55 32.4 -55 29 C-50.80753698 30.04811576 -50.52348193 30.18406215 -48.1875 33.375 C-44.25477445 38.1039811 -40.86828222 39.64994812 -34.86328125 40.3828125 C-25.13317378 40.87520518 -17.61480465 38.65259014 -10.0625 32.39453125 C-3.40002248 25.38227366 -1.09272617 15.6103739 -0.4375 6.25 C-0.31181641 4.49429688 -0.31181641 4.49429688 -0.18359375 2.703125 C-0.12300781 1.81109375 -0.06242187 0.9190625 0 0 Z " fill="#EBD99F" transform="translate(345,173)"/>
<path d="M0 0 C7.86443914 2.24698261 7.86443914 2.24698261 11.171875 4.06640625 C11.91010498 4.46553223 12.64833496 4.8646582 13.40893555 5.27587891 C14.56776245 5.91275635 14.56776245 5.91275635 15.75 6.5625 C25.34052188 11.73036085 35.11831045 16.41879118 45 21 C45.495 19.515 45.495 19.515 46 18 C46.21914062 18.66386719 46.43828125 19.32773438 46.6640625 20.01171875 C49.43769502 27.73504506 52.02070816 30.73726542 59.1875 34.8125 C65.78214845 36.86657083 72.302738 36.49902615 79 35 C75.89678541 38.56754186 73.17473796 39.94732363 68.71484375 41.4375 C67.47226807 41.85596191 66.22969238 42.27442383 64.94946289 42.70556641 C63.61275794 43.13894889 62.27542087 43.57038592 60.9375 44 C60.25750946 44.22032898 59.57751892 44.44065796 58.87692261 44.66766357 C54.26451967 46.15679627 49.63769699 47.59166157 45 49 C44.08637695 49.28004883 43.17275391 49.56009766 42.23144531 49.84863281 C22.39427202 55.68018438 -4.55609652 56.54832206 -23.30078125 47.38671875 C-29.09837536 44.19414861 -34.21474634 40.56774213 -39 36 C-39 35.67 -39 35.34 -39 35 C-18.54 35 1.92 35 23 35 C23 29.39 23 23.78 23 18 C15.41 18 7.82 18 0 18 C0 12.06 0 6.12 0 0 Z " fill="#DACB98" transform="translate(145,177)"/>
<path d="M0 0 C4.71237559 2.68052134 7.95035893 6.16357679 9.6875 11.375 C10.32965083 19.07028289 10.51751922 26.02383836 5.6875 32.375 C1.17024057 36.77643227 -2.95056406 38.4669318 -9.1875 38.75 C-14.38510297 38.63398208 -17.14124278 37.46173034 -21.3125 34.375 C-27.09640057 28.12213452 -27.81757808 23.26857926 -27.6953125 14.8671875 C-27.00431028 8.56355504 -24.21261111 5.13938889 -19.6875 0.9375 C-13.85527883 -2.89948761 -6.27709986 -2.87600963 0 0 Z " fill="#E7D69C" transform="translate(317.3125,158.625)"/>
<path d="M0 0 C3.3372544 1.90507235 5.58766077 4.00182375 7.625 7.3125 C7.625 8.3025 7.625 9.2925 7.625 10.3125 C6.655625 10.59222656 5.68625 10.87195313 4.6875 11.16015625 C-3.58201658 13.61323464 -11.44088787 16.44249103 -19.23242188 20.16430664 C-24.06652527 22.41532491 -24.06652527 22.41532491 -27.375 21.3125 C-27.9719606 14.83879397 -27.63933651 10.37562769 -23.80859375 5.00390625 C-17.62624438 -2.29025526 -8.69746661 -4.04685125 0 0 Z " fill="#FBFBFB" transform="translate(317.375,158.6875)"/>
<path d="M0 0 C2.64 0.66 5.28 1.32 8 2 C6.96178302 6.15286792 5.89331309 7.93649202 3 11 C2.01 11 1.02 11 0 11 C0 7.37 0 3.74 0 0 Z " fill="#F8F7F6" transform="translate(290,141)"/>
<path d="M0 0 C0.99 0 1.98 0 3 0 C3 2.31 3 4.62 3 7 C1.40233897 7.86627399 -0.20339944 8.71766465 -1.8125 9.5625 C-2.70582031 10.03816406 -3.59914062 10.51382813 -4.51953125 11.00390625 C-7 12 -7 12 -10 11 C-9.36191406 10.45730469 -8.72382813 9.91460937 -8.06640625 9.35546875 C-7.24011719 8.64003906 -6.41382813 7.92460937 -5.5625 7.1875 C-4.73878906 6.47980469 -3.91507813 5.77210938 -3.06640625 5.04296875 C-0.77835241 3.08890314 -0.77835241 3.08890314 0 0 Z " fill="#F3F3F0" transform="translate(233,202)"/>
</svg>
